<?xml version="1.0" encoding="utf-8"?>
<!-- Generator: Adobe Illustrator 16.0.0, SVG Export Plug-In . SVG Version: 6.00 Build 0)  -->
<!DOCTYPE svg PUBLIC "-//W3C//DTD SVG 1.0//EN" "http://www.w3.org/TR/2001/REC-SVG-20010904/DTD/svg10.dtd">
<svg version="1.0" id="Layer_1" xmlns="http://www.w3.org/2000/svg" xmlns:xlink="http://www.w3.org/1999/xlink" x="0px" y="0px"
	 width="800px" height="800px" viewBox="0 0 800 800" enable-background="new 0 0 800 800" xml:space="preserve">
<g>
	<path fill="#1E4094" d="M127.684,728.078c-3.711,0-7.421-0.413-11.132-1.648c-3.711-0.825-7.422-2.888-10.308-5.361
		c-3.299-2.886-5.771-6.185-7.421-10.306c-2.062-4.948-3.298-10.721-2.886-16.08v-62.256c0-4.534,0.824-8.657,2.474-12.78
		c2.886-7.833,8.658-14.019,16.491-17.317c8.246-3.299,16.904-3.299,25.149,0c3.711,1.65,7.009,4.123,9.896,7.011
		c2.886,3.297,4.946,6.596,6.597,10.718c1.648,4.536,2.474,9.07,2.474,13.607v7.42c0,0.823-0.825,1.649-1.65,1.649h-18.552
		c-0.824,0-1.648-0.826-1.648-1.649v-6.184c0-3.299-0.826-6.598-2.887-9.071c-1.649-2.474-4.535-3.711-7.422-3.711
		c-3.298-0.411-6.185,1.237-7.832,3.711c-1.649,3.298-2.062,7.009-2.062,10.72v57.308c0,3.299,0.412,6.185,2.062,9.069
		c1.647,2.475,4.946,3.712,7.832,3.299h3.711l3.298-2.061c1.238-0.825,2.062-2.475,2.474-3.71c0.826-2.062,0.826-4.123,0.826-6.185
		v-6.184c0-0.826,0.824-1.65,1.648-1.65h18.141c0.824,0,1.649,0.824,1.649,1.65v7.833c0,8.245-3.3,16.49-9.07,22.674
		c-2.886,2.887-6.185,5.361-9.896,7.011C135.929,727.253,131.807,728.078,127.684,728.078z"/>
	<path fill="#1E4094" d="M204.369,728.078c-4.123,0-7.833-0.825-11.544-2.063c-4.123-1.648-7.421-3.71-10.72-6.595
		c-3.298-2.887-5.772-6.598-7.421-10.721c-2.063-4.946-2.886-9.896-2.886-15.254v-59.369c0-4.949,0.823-10.308,2.886-14.843
		c1.648-4.123,4.123-7.834,7.421-10.721c3.299-2.886,6.597-4.946,10.72-6.596c7.421-2.888,16.079-2.888,23.5,0
		c4.123,1.649,7.422,3.71,10.72,6.596c3.298,2.887,5.772,6.598,7.421,10.721c2.062,4.535,2.886,9.894,2.886,14.843v59.78
		c0,5.359-0.824,10.308-2.886,15.255c-1.648,4.123-4.123,7.834-7.421,10.72c-3.298,2.887-6.597,4.946-10.72,6.598
		C212.614,727.665,208.492,728.078,204.369,728.078z M204.369,621.708c-5.771-0.413-11.132,4.122-11.132,10.307
		c0,0.824,0,1.65,0,2.063v59.78c-0.412,3.299,0.825,6.598,3.299,9.069c4.534,4.126,11.544,4.126,16.078,0
		c2.474-2.473,3.711-5.771,3.299-9.069v-59.78c0.412-3.299-0.825-6.598-3.299-9.072
		C210.553,622.944,207.254,622.119,204.369,621.708L204.369,621.708z"/>
	<path fill="#1E4094" d="M316.512,727.253h-16.903c-0.825,0-1.65-0.412-1.65-1.237l-23.912-62.256c-0.413-0.412-1.237-0.412-1.649,0
		l-0.412,0.414v61.019c0,0.823-0.825,1.648-1.649,1.648h-18.553c-0.824,0-1.649-0.825-1.649-1.648v-122.45
		c0-0.824,0.825-1.648,1.649-1.648h17.316c0.824,0,1.648,0.411,1.648,1.235l23.501,62.256c0.412,0.413,1.236,0.413,1.648,0
		l0.413-0.411v-61.432c0-0.824,0.824-1.648,1.648-1.648H316.1c0.823,0,1.648,0.824,1.648,1.648v122.45
		C318.161,726.016,317.335,726.841,316.512,727.253L316.512,727.253z"/>
	<path fill="#1E4094" d="M419.996,727.253h-18.142c-0.823,0-1.647-0.823-1.647-1.648v-61.02c-0.413-0.824-0.825-0.824-1.65-0.824
		c0,0-0.411,0-0.411,0.413l-14.02,43.702l-1.235,0.824h-9.896l-1.236-0.824l-13.604-43.702c-0.414-0.414-1.238-0.414-1.65,0
		l-0.411,0.411v60.607c0,0.823-0.825,1.648-1.65,1.648H336.3c-0.823,0-1.648-0.825-1.648-1.648v-122.45
		c0-0.824,0.825-1.648,1.648-1.648h17.317c0.824,0,1.649,0.411,1.649,1.235l21.852,58.959c0.412,0.412,1.236,0.824,1.648,0.412
		l0.412-0.412l21.441-59.37c0-0.824,0.823-1.237,1.647-1.237h17.729c0.824,0,1.65,0.824,1.65,1.648v122.449
		c0.411,0.826,0,1.651-0.415,2.063C420.82,727.253,420.408,727.253,419.996,727.253z"/>
	<path fill="#1E4094" d="M494.62,727.253h-54.834c-0.825,0-1.649-0.823-1.649-1.648V602.742c0-0.824,0.824-1.648,1.649-1.648h55.245
		c0.827,0,1.65,0.824,1.65,1.648v17.729c0,0.824-0.823,1.648-1.65,1.648h-34.22c-0.824,0-1.237,0.412-1.237,1.237l0,0v28.448
		c0,0.824,0.413,1.235,1.237,1.235l0,0h29.273c0.824,0,1.647,0.826,1.647,1.651v17.727c0,0.826-0.823,1.65-1.647,1.65h-29.273
		c-0.824,0-1.237,0.412-1.237,1.236l0,0v28.448c0,0.825,0.413,1.236,1.237,1.236l0,0h34.22c0.827,0,1.65,0.825,1.65,1.649v18.553
		c0.412,0.824-0.412,1.649-1.236,2.062C495.445,727.253,495.031,727.253,494.62,727.253z"/>
	<path fill="#1E4094" d="M535.437,727.253h-25.15c-0.824,0-1.648-0.823-1.648-1.648V602.742c0-0.824,0.824-1.648,1.648-1.648h26.799
		c5.361,0,10.721,0.824,15.667,2.886c4.125,1.648,7.834,4.535,10.72,7.834c4.947,6.184,7.834,13.191,8.246,21.025
		c0.824,11.544-1.649,23.089-11.132,30.098h-0.413c3.711,2.062,6.598,5.359,8.246,9.069c3.299,7.833,4.536,16.493,2.887,24.737
		c-0.824,7.422-3.712,14.43-8.245,20.203C557.288,723.542,547.806,727.253,535.437,727.253z M530.078,703.754
		c0,0.824,0.411,1.235,1.235,1.235l0,0h5.359c2.886,0,5.773-0.411,8.246-1.649c8.659-4.535,9.071-20.202,2.475-26.797l-1.237-1.238
		c-4.123-2.887-9.895-2.061-14.843-2.061c-0.824,0-1.235,0.412-1.235,1.236l0,0V703.754z M530.078,652.217
		c0,0.823,0.411,1.237,1.235,1.237l0,0h5.771c5.772,0,9.483-1.237,11.545-4.124c4.122-7.007,4.122-16.079-0.413-23.087
		c-3.298-3.299-7.422-4.535-11.955-4.124h-5.36c-0.823,0-1.237,0.412-1.237,1.237l0,0L530.078,652.217z"/>
	<path fill="#1E4094" d="M616.657,728.078c-4.123,0-7.833-0.825-11.545-2.063c-4.122-1.648-7.421-3.71-10.719-6.595
		c-3.298-2.887-5.771-6.598-7.422-10.721c-2.06-4.946-2.884-9.896-2.884-15.254v-59.369c0-4.949,0.824-10.308,2.884-14.843
		c1.65-4.123,4.124-7.834,7.422-10.721c3.298-2.886,6.597-4.946,10.719-6.596c7.422-2.888,16.08-2.888,23.502,0
		c4.122,1.649,7.42,3.71,10.719,6.596c3.299,2.887,5.771,6.598,7.421,10.721c2.062,4.535,2.886,9.894,2.886,14.843v59.78
		c0,5.359-0.824,10.308-2.886,15.255c-1.648,4.123-4.122,7.834-7.421,10.72c-3.299,2.887-6.597,4.946-10.719,6.598
		C624.902,727.665,620.779,728.078,616.657,728.078z M616.657,621.708c-5.772-0.413-11.131,4.122-11.131,10.307
		c0,0.824,0,1.65,0,2.063v59.78c-0.414,3.299,0.823,6.598,3.298,9.069c4.534,4.126,11.544,4.126,16.078,0
		c2.475-2.473,3.712-5.771,3.299-9.069v-59.78c0.413-3.299-0.824-6.598-3.299-9.072
		C622.842,622.944,619.543,622.119,616.657,621.708L616.657,621.708z"/>
	<path fill="#1E4094" d="M722.615,727.253h-55.247c-0.824,0-1.648-0.823-1.648-1.648V602.742c0-0.824,0.824-1.648,1.648-1.648
		h18.142c0.824,0,1.648,0.824,1.648,1.648v101.012c0,0.824,0.412,1.235,1.236,1.235l0,0h34.221c0.824,0,1.648,0.825,1.648,1.649
		v18.554c0.412,0.823-0.411,1.648-1.235,2.061H722.615z"/>
	<path fill="#1E4094" d="M738.283,653.04h39.99c0.413,0,0.413,0,0.413,0.414v21.438c0,0.413,0,0.413-0.413,0.413h-39.99
		c-0.414,0-0.414,0-0.414-0.413v-21.438C737.869,653.04,737.869,653.04,738.283,653.04z"/>
	<path fill="#1E4094" d="M21.726,653.04h39.992c0.412,0,0.412,0,0.412,0.414v21.438c0,0.413,0,0.413-0.412,0.413H21.726
		c-0.412,0-0.412,0-0.412-0.413v-21.438C21.313,653.04,21.313,653.04,21.726,653.04z"/>
	
		<linearGradient id="SVGID_1_" gradientUnits="userSpaceOnUse" x1="89.3335" y1="544.2734" x2="44.4646" y2="621.9867" gradientTransform="matrix(3.7415 0 0 3.7415 131.7269 -1903.1442)">
		<stop  offset="0" style="stop-color:#84AED2"/>
		<stop  offset="0.11" style="stop-color:#6B9FCA"/>
		<stop  offset="0.54" style="stop-color:#1E4094"/>
		<stop  offset="1" style="stop-color:#1E4094"/>
	</linearGradient>
	<path fill="url(#SVGID_1_)" d="M400.207,143.454c-25.151,0-50.3,2.885-74.625,8.658c-23.502,5.772-46.589,14.018-68.027,25.563
		c-3.299,1.648-5.36,4.534-5.772,8.245c-0.824,7.01-1.649,13.606-2.063,20.203c-0.412,6.596-0.823,13.605-0.823,20.202
		c0,51.536,13.604,102.247,39.167,146.774c25.562,44.528,62.256,81.221,106.783,106.784c3.299,1.649,7.008,1.649,10.307,0
		c44.528-25.563,81.633-62.256,107.195-106.784c25.561-44.527,39.167-95.238,39.167-146.774c0-6.597-0.412-13.193-0.824-20.202
		c-0.412-7.008-1.237-13.604-2.062-20.203l0,0c-0.413-3.71-2.474-6.596-5.772-8.245c-21.438-11.544-44.527-19.791-68.027-25.563
		C450.505,146.339,425.356,143.454,400.207,143.454z"/>
	
		<linearGradient id="SVGID_2_" gradientUnits="userSpaceOnUse" x1="103.353" y1="536.4258" x2="39.981" y2="646.181" gradientTransform="matrix(3.7415 0 0 3.7415 131.7269 -1903.1442)">
		<stop  offset="0.05" style="stop-color:#84AED2"/>
		<stop  offset="0.54" style="stop-color:#1E4094"/>
		<stop  offset="1" style="stop-color:#1E4094"/>
	</linearGradient>
	<path fill="url(#SVGID_2_)" d="M218.799,345.474l-30.51,69.266h-0.823c-16.491-32.983-24.738-69.266-24.738-105.959l0,0
		l52.773,27.211C218.799,337.641,220.448,341.764,218.799,345.474z M575.84,199.113c0.414,7.833,0.826,15.254,0.826,22.675
		c0,28.448-3.711,56.484-11.133,84.107l65.554-49.476c-5.36-24.325-14.842-47.413-27.622-68.852l-28.449,1.237
		c0.413,3.711,0.824,7.009,1.238,10.719L575.84,199.113z M305.793,129.848l9.068-42.054c-33.394,12.782-63.491,33.396-87.816,59.37
		l42.878-5.36C281.468,137.27,293.424,133.146,305.793,129.848z M529.664,141.804l42.878,5.36
		c-24.325-25.974-54.01-46.176-86.993-59.37l8.658,42.054C506.575,133.146,518.532,137.27,529.664,141.804L529.664,141.804z
		 M455.452,121.19l-17.728-46.176c-25.149-4.123-50.3-4.123-75.449,0l-17.729,46.588c36.693-5.771,74.212-5.771,110.905,0V121.19z
		 M223.335,221.788c0-7.421,0.412-14.842,0.824-22.675c0.412-7.834,0.823-7.01,1.236-10.308l-28.859-1.237
		c-12.781,21.439-22.264,44.94-27.624,69.265l65.554,49.475C227.045,278.684,223.335,250.236,223.335,221.788z M637.271,308.368
		l-52.772,27.624c-3.298,1.649-4.948,5.772-3.298,9.482l30.51,69.266h0.823c16.491-32.983,24.737-69.266,24.737-105.959V308.368z
		 M266.625,385.054c-4.536-7.833-8.246-15.667-11.957-23.5l-39.167,96.475c21.851,27.212,49.886,49.477,81.221,64.73l54.833-41.229
		C316.923,455.556,288.063,422.572,266.625,385.054z M392.372,510.389l-40.817,30.924c32.159,6.596,64.73,6.596,96.889,0
		l-40.816-30.924C403.093,507.092,397.319,507.092,392.372,510.389L392.372,510.389z M532.963,385.054
		c-21.438,37.519-50.3,70.502-84.931,96.477l54.421,41.642c31.334-15.256,59.37-37.52,81.221-64.73l-39.167-96.475
		C541.62,369.799,537.909,377.633,532.963,385.054L532.963,385.054z"/>
	<path fill="#FFFFFF" d="M483.487,280.333c0.414,0.412,0.414,1.238,0,1.65l-2.885,3.71h-1.649
		c-5.772-7.009-13.192-12.368-21.438-16.079c-8.659-3.711-18.142-5.772-27.624-5.772h-0.823c-13.193,0-26.388,4.123-37.107,11.957
		c-9.896,6.596-17.729,16.079-22.264,27.211l-1.236,0.825l0,0l-0.824-0.825l-1.65-7.01c0-0.412,0-1.236,0.413-1.648
		c1.649-3.298,3.711-6.597,6.184-9.482c4.123-5.772,9.07-10.72,14.843-14.843c11.957-8.246,26.387-13.193,41.229-13.193h0.824
		c10.72,0,21.026,2.061,30.509,6.597C469.06,267.552,476.893,273.325,483.487,280.333z M486.375,266.728L486.375,266.728
		c-15.667-14.019-35.87-21.439-56.896-21.439h-1.236c-14.431,0-28.86,4.122-41.642,11.131c-11.957,6.598-21.852,16.08-28.861,27.623
		c0,0.414,0,0.414,0,0.826v1.648l3.711,2.063h1.649c6.597-10.307,15.667-18.965,26.387-25.149
		c11.545-6.597,24.737-10.308,38.343-10.308h1.238c21.026,0,40.815,7.833,55.657,22.676h1.237c0.413,0,0.824-0.826,0.824-1.238
		v-6.184c0.412-0.412,0.412-1.237,0-1.648H486.375z M486.375,251.885c-16.492-11.544-36.281-17.729-56.484-17.729h-1.236
		c-17.317,0-34.222,4.948-49.063,13.607c-13.606,8.245-25.15,19.376-32.983,33.395c-0.412,0.413-0.412,0.825,0,1.236l1.236,0.825
		h4.536l1.647-0.825c7.422-11.544,17.317-21.438,29.273-28.447c13.605-8.247,29.273-12.369,45.353-12.782h1.236
		c20.203,0,39.58,6.598,55.658,18.552h1.237c0.412,0,0.824-0.824,0.824-1.236v-4.948
		C487.61,252.709,487.198,252.297,486.375,251.885z M429.891,223.024h-1.648c-19.379,0-37.932,5.36-54.835,14.843
		c-14.842,8.658-27.211,20.614-36.281,35.045c-0.412,0.412-0.412,1.648,0,2.06l2.474,3.299h2.061
		c8.659-14.429,20.615-25.974,35.045-34.22c15.667-9.07,33.396-14.017,51.537-14.017h1.236c19.789-0.412,38.755,4.947,55.659,15.255
		h1.648l3.299-2.886c0.412-0.413,0.412-0.825,0.412-1.237v-0.824C472.355,228.797,451.742,223.024,429.891,223.024L429.891,223.024z
		 M493.383,228.797c-18.965-11.132-40.816-16.904-63.08-16.904h-1.648c-20.614,0-40.817,5.36-58.958,15.255
		c-16.079,8.658-30.097,21.438-40.404,36.693c-0.412,0.824-0.412,1.236,0,2.061l2.886,3.299h2.063
		c9.895-14.843,23.087-27.212,38.754-35.87c16.904-9.071,35.869-14.018,55.248-14.431h1.648c21.438,0,42.465,5.772,60.606,16.493
		h1.235l0.827-0.826l1.236-4.534C493.796,229.622,493.796,229.21,493.383,228.797z M427.829,207.771h1.238
		c0.411-0.414,0.411-0.825,0-1.238l-1.649-3.71c-0.414-0.825-1.238-1.236-2.062-1.236l0,0c-20.203,0.824-39.581,5.771-57.721,14.841
		c-17.316,8.659-32.571,21.439-44.527,37.106c-0.413,0.414-0.825,1.237-0.413,2.063l2.062,4.122l0.825,0.826h1.236
		C350.319,227.972,387.837,208.183,427.829,207.771z M456.69,210.244c11.955,2.474,23.912,6.596,34.631,12.369h1.238
		c0.411-0.412,0.411-0.824,0.411-1.236l-1.238-5.36c-0.411-0.412-0.823-0.825-1.235-1.237c-8.658-4.123-18.142-7.421-27.624-9.894
		h-1.648l-4.947,3.298c-0.413,0.412-0.413,0.824-0.413,1.237L456.69,210.244z M364.337,212.305
		c9.483-4.948,19.377-8.658,29.684-11.132c10.31-2.473,21.027-4.123,31.748-4.534l1.235-0.825c0.414-0.413,0.414-0.825,0-1.238
		l-2.474-4.122c-0.411-0.825-1.235-0.825-2.061-0.825c-10.308,0.413-20.202,2.061-30.098,4.535
		c-10.72,2.886-21.438,7.008-31.333,11.956c-18.967,9.895-35.457,23.913-48.238,40.816c-0.412,0.413-0.412,0.826,0,1.238
		l0.824,0.825l4.123,1.649h1.648C331.354,234.568,346.608,221.788,364.337,212.305z M348.67,208.183
		c16.079-9.896,33.395-16.904,51.95-20.203l0.823-0.824c0-0.412,0-0.824-0.412-1.238l-4.124-3.71h-1.648
		c-17.729,3.71-34.633,10.721-50.3,20.203c-14.43,9.071-27.624,20.202-38.343,33.396c-0.411,0.413-0.411,1.237-0.411,1.649
		l0.823,5.772l0.825,0.824h1.236C319.81,229.622,333.415,217.253,348.67,208.183L348.67,208.183z M309.915,223.85h1.236
		c19.79-20.614,44.527-35.457,71.739-43.29l0.823-0.826c0-0.412,0-0.824-0.412-1.236l-2.886-3.298
		c-0.412-0.412-1.237-0.825-2.062-0.412c-26.386,7.833-50.299,22.263-69.677,41.228c-0.412,0.412-0.412,1.237-0.412,1.649
		l0.824,5.36L309.915,223.85z M313.625,196.639v0.824l3.71,2.886h1.65c12.78-10.307,27.211-18.553,42.465-24.737
		c0.413,0,0.825-0.824,0.825-1.236c0-0.413-0.412-1.237-0.825-1.237l-6.184-2.061h-1.649c-14.018,6.596-27.623,14.841-39.579,24.737
		L313.625,196.639z M310.739,191.691h1.237c6.185-4.947,12.78-9.07,19.377-13.192c0.412-0.413,0.412-0.825,0.412-1.237l-0.824-0.826
		l-5.359-1.648h-1.65l-14.017,9.895c-0.825,0.412-0.825,1.236-0.825,2.062l0.825,4.535L310.739,191.691z M435.251,315.378
		L435.251,315.378c-1.65-1.238-3.711-2.063-5.772-2.063l0,0c-4.947-0.412-9.07,3.71-9.482,8.658v0.412
		c0,2.475,1.235,4.535,2.885,6.184l14.433,13.193h1.647l4.124-2.474v-0.824c0-0.413,0-0.825-0.413-1.237
		c-5.771-4.948-15.254-13.606-15.254-13.606l-0.826-1.649c0-1.237,1.237-2.062,2.476-2.062h1.648l13.193,11.544h1.236l0.826-0.824
		l1.647-4.536c0-0.412,0-0.824-0.413-1.236L435.251,315.378z M444.32,307.544c-4.122-3.71-9.482-5.772-14.842-5.772h-0.824
		c-5.773,0-11.133,2.063-15.255,6.185c-4.122,3.71-6.184,9.069-6.184,14.43c0,4.535,1.647,8.658,4.535,11.957
		c7.42,9.071,16.903,16.491,27.21,22.263h1.237c0.412-0.412,0.412-0.824,0.412-1.236l-1.649-6.185v-0.825
		c-8.245-4.535-15.666-10.719-21.852-18.141c-1.648-2.061-2.886-4.946-2.886-7.833c0-3.71,1.65-7.008,4.124-9.482
		c2.884-2.474,6.596-4.124,10.307-4.124h0.824c3.71,0,7.422,1.65,10.308,4.124l11.543,10.308h1.651l3.71-2.887V319.5
		c0-0.412,0-0.412-0.413-0.825L444.32,307.544z M452.154,298.886c-2.061-1.648-4.122-3.298-6.598-4.535
		c-4.946-2.474-10.306-3.71-16.078-3.71h-0.411c-9.071,0-17.316,3.297-23.914,9.482c-6.185,5.772-9.482,14.017-9.482,22.675
		c0,6.597,2.475,12.781,6.597,18.141c6.596,8.246,14.431,15.667,23.089,21.439h1.235l4.948-2.062l0.825-0.825
		c0-0.412,0-0.824-0.413-1.236c-9.071-5.772-17.316-12.782-23.912-21.439c-3.299-4.124-4.947-9.07-4.947-14.019
		c0-6.596,2.885-13.192,7.833-17.729c5.359-4.946,11.955-7.42,18.965-7.42h0.412c4.535,0,8.658,0.824,12.782,2.886l4.947,3.71
		L460.4,315.79h1.238c0.411,0,0.823-0.412,0.823-0.826v-6.184c0-0.412,0-1.236-0.412-1.649L452.154,298.886z M429.479,279.509
		h-0.824c-11.956,0-23.501,4.534-32.159,12.781c-8.658,7.834-13.193,18.964-13.193,30.509c0,8.659,3.299,17.316,8.658,24.325
		c7.009,9.071,15.667,17.316,25.149,23.913h1.238l0.823-0.824l1.237-4.536c0-0.412,0-0.825-0.412-1.237
		c-8.659-6.184-16.079-13.194-22.677-21.438c-4.534-5.772-7.009-12.782-7.009-20.203c0-9.895,4.122-18.964,11.133-25.561
		c7.42-7.01,17.315-10.721,27.211-10.721h0.824c11.132,0,21.438,4.537,29.272,12.369h2.061l2.475-3.71c0-0.413,0-1.237-0.413-1.65
		C454.216,284.457,441.847,279.509,429.479,279.509z M429.479,268.376h-0.824c-15.255,0-29.686,6.184-40.817,16.492
		c-10.719,9.895-16.903,23.912-16.491,38.754c0,11.131,3.71,22.265,10.719,30.921c9.896,12.368,22.266,23.089,36.283,30.921h1.648
		l3.299-3.298c0.412-0.412,0.412-0.824,0.412-1.237v-0.824c-13.605-7.834-25.562-18.553-35.045-30.922
		c-6.185-7.834-9.483-16.904-9.483-26.799c0-12.78,4.947-24.737,14.43-33.396c9.896-9.07,22.677-14.43,35.87-14.43l0,0
		c13.606,0,26.386,4.948,36.282,14.019h1.647l4.124-2.474v-0.824c0-0.412,0-0.824-0.413-1.238
		C459.987,273.736,444.733,267.964,429.479,268.376L429.479,268.376z M413.812,396.598h1.649l2.061-3.71
		c0.411-0.412,0-1.238-0.412-1.65c-15.255-9.07-28.86-20.614-39.579-35.043h-1.236l-0.825,0.824l-1.237,5.36
		c0,0.412,0,1.236,0.412,1.649C385.775,377.221,398.969,388.352,413.812,396.598z M421.231,413.09L421.231,413.09l0.415-6.185
		c0-0.411-0.415-1.237-0.826-1.237c-14.843-7.008-28.035-16.903-39.58-28.447h-1.236c-0.412,0-0.825,0.824-0.825,1.236v6.184
		c0,0.825,0.413,1.238,0.825,1.65c11.956,11.131,25.561,20.203,40.404,27.212L421.231,413.09z M391.135,401.545l-0.824,0.826
		l-0.824,4.534c0,0.825,0,1.649,0.824,2.062c7.835,5.359,16.492,10.308,25.15,14.431h1.237v-5.772c0-0.412-0.413-1.236-0.824-1.236
		c-8.247-4.124-16.08-9.07-23.502-14.432L391.135,401.545z M427.829,440.714h0.825c0.413-0.412,0.413-0.826,0-1.238l-3.711-6.184
		h-0.824c-11.544-4.535-22.676-10.308-32.984-17.315h-1.236c-0.412,0.412-0.412,0.823-0.412,1.236v5.359
		c0,0.825,0.412,1.236,0.824,1.648c11.544,7.422,23.913,13.194,36.693,17.729L427.829,440.714z M399.794,433.292h-1.237
		c-0.411,0.411-0.411,0.824-0.411,1.237l2.062,5.772l1.236,1.236c8.246,4.122,16.904,7.834,25.975,10.719h1.649l5.771-2.885
		c0.413-0.414,0.825-1.238,0.413-1.65l-0.413-0.412c-12.368-3.298-24.325-7.834-35.456-13.606L399.794,433.292z"/>
	<path fill="#FFFFFF" d="M464.936,347.948v16.08h-3.711v-11.956l-2.885,1.236c-0.825-0.824-1.237-2.062-1.237-3.298l4.947-2.063
		H464.936z"/>
	<path fill="#FFFFFF" d="M479.364,355.37c0,6.597-3.71,9.07-9.894,9.07c-0.411-0.825-0.411-1.238-0.411-2.062
		c0-0.412,0-0.825,0-1.236c3.71,0,6.183-0.414,6.595-3.712c-0.824,0.826-1.647,1.238-2.885,1.238
		c-2.887,0.412-4.948-1.65-5.361-4.536c0-0.412,0-0.412,0-0.824c0-3.298,2.475-5.772,5.772-5.772l0,0
		C477.304,347.536,479.364,350.834,479.364,355.37z M473.181,355.37l2.885-0.825c0-2.473-1.235-4.123-2.885-4.123
		c-1.236-0.412-2.062,0.412-2.473,1.65c0,0.412,0,0.824,0,0.824c-0.413,0.825,0,2.062,0.824,2.886c0.412,0.413,1.237,0.413,1.648,0
		V355.37z"/>
	<path fill="#FFFFFF" d="M488.436,347.948v16.08h-3.711v-11.956l-2.886,1.236c-0.824-0.824-1.236-2.062-1.236-3.298l4.946-2.063
		H488.436z"/>
	<path fill="#FFFFFF" d="M503.278,358.668c0.412,2.886-2.061,5.36-4.948,5.772c-0.413,0-0.824,0-1.236,0
		c-3.298,0.412-5.772-2.062-6.185-5.36c0-0.412,0-0.824,0-1.236c0-5.359,4.122-9.896,9.482-10.72
		c0.826,0.824,0.826,2.062,0.826,3.298c-2.888,0-5.359,1.65-6.598,4.123l2.886-0.824c2.475-0.825,4.947,0.824,5.772,2.886
		C503.278,357.43,503.278,357.843,503.278,358.668z M499.98,358.668c0-1.238-0.826-2.062-2.063-2.062h-0.411l-2.886,0.824l0,0
		c0,2.062,1.238,3.298,2.474,3.298c1.236,0.414,2.061,0,2.887-1.237C499.98,359.492,499.98,359.492,499.98,358.668L499.98,358.668z"
		/>
</g>
</svg>
